<?xml version="1.0" encoding="UTF-8"?>
<svg id="Layer_1" xmlns="http://www.w3.org/2000/svg" version="1.1" xmlns:xlink="http://www.w3.org/1999/xlink" viewBox="0 0 280.66 282.16">
  <!-- Generator: Adobe Illustrator 29.1.0, SVG Export Plug-In . SVG Version: 2.1.0 Build 142)  -->
  <defs>
    <style>
      .st0 {
        letter-spacing: -.11em;
      }

      .st1 {
        fill: none;
        stroke: #6d6e71;
        stroke-width: .5px;
      }

      .st1, .st2 {
        stroke-miterlimit: 10;
      }

      .st3, .st4, .st5, .st6 {
        fill: #231f20;
      }

      .st3, .st4, .st6 {
        font-family: Avenir-Heavy, Avenir;
      }

      .st2 {
        stroke: #231f20;
        stroke-width: .25px;
      }

      .st2, .st7 {
        fill: #c4161c;
      }

      .st8 {
        letter-spacing: -.11em;
      }

      .st9, .st10 {
        font-family: Arial-BoldMT, Arial;
        font-weight: 700;
      }

      .st9, .st10, .st11 {
        fill: #15467b;
      }

      .st9, .st12 {
        font-size: 9px;
      }

      .st4 {
        letter-spacing: 0em;
      }

      .st13 {
        fill: url(#radial-gradient);
      }

      .st14 {
        letter-spacing: 0em;
      }

      .st5 {
        font-family: Avenir-HeavyOblique, Avenir;
        font-size: 7px;
        font-style: oblique;
      }

      .st5, .st15, .st16 {
        font-weight: 800;
      }

      .st17 {
        fill: url(#radial-gradient1);
      }

      .st18 {
        letter-spacing: -.02em;
      }

      .st19 {
        letter-spacing: -.11em;
      }

      .st20 {
        letter-spacing: -.02em;
      }

      .st6 {
        letter-spacing: 0em;
      }

      .st15 {
        fill: #f1f2f2;
        font-family: Arial-Black, Arial;
        font-size: 12px;
      }

      .st7 {
        font-family: Avenir-Black, Avenir;
      }

      .st10 {
        font-size: 8.5px;
      }

      .st12 {
        fill: #fff;
        font-family: Avenir-Medium, Avenir;
        font-weight: 500;
      }

      .st16 {
        font-size: 8px;
      }

      .st21 {
        fill: #c9ae2d;
      }
    </style>
    <radialGradient id="radial-gradient" cx="140.42" cy="140.22" fx="140.42" fy="140.22" r="126.24" gradientTransform="translate(1.32 -1.3) rotate(.53)" gradientUnits="userSpaceOnUse">
      <stop offset="0" stop-color="#fff"/>
      <stop offset=".22" stop-color="#fefefb"/>
      <stop offset=".43" stop-color="#fcfbef"/>
      <stop offset=".64" stop-color="#f9f6dc"/>
      <stop offset=".84" stop-color="#f5f0c1"/>
      <stop offset="1" stop-color="#f2eaa7"/>
    </radialGradient>
    <radialGradient id="radial-gradient1" cx="140.43" cy="141" fx="140.43" fy="141" r="47.38" gradientTransform="translate(1.32 -1.3) rotate(.53)" gradientUnits="userSpaceOnUse">
      <stop offset="0" stop-color="#fff"/>
      <stop offset=".16" stop-color="#f9fcfd"/>
      <stop offset=".36" stop-color="#e9f7fa"/>
      <stop offset=".59" stop-color="#cfedf4"/>
      <stop offset=".84" stop-color="#abdfeb"/>
      <stop offset="1" stop-color="#8fd5e5"/>
    </radialGradient>
  </defs>
  <polygon class="st21" points="76.43 282.16 .37 195.77 0 79.75 82.6 0 198.98 .65 280.66 84.58 280.66 202.49 194.02 282.16 76.43 282.16"/>
  <polygon class="st13" points="86.38 265.72 13.85 190.94 14.44 87.14 88.72 13.74 193.46 14.72 267.39 89.5 265.78 194.86 189.44 266.68 86.38 265.72"/>
  <polygon class="st17" points="120.37 188.19 92.88 160.18 93.24 120.94 121.25 93.44 160.5 93.81 187.99 121.82 187.63 161.06 159.62 188.56 120.37 188.19"/>
  <polygon class="st1" points="120.37 188.19 92.88 160.18 93.24 120.94 121.25 93.44 160.5 93.81 187.99 121.82 187.63 161.06 159.62 188.56 120.37 188.19"/>
  <line class="st1" x1="88.72" y1="13.74" x2="121.25" y2="93.44"/>
  <line class="st1" x1="160.5" y1="93.81" x2="193.46" y2="14.72"/>
  <line class="st1" x1="187.99" y1="121.82" x2="267.39" y2="89.5"/>
  <line class="st1" x1="187.73" y1="160.82" x2="265.78" y2="194.86"/>
  <line class="st1" x1="189.44" y1="266.68" x2="159.65" y2="188.37"/>
  <line class="st1" x1="120.32" y1="188" x2="86.38" y2="265.72"/>
  <line class="st1" x1="92.77" y1="159.93" x2="13.85" y2="190.94"/>
  <line class="st1" x1="93.24" y1="120.94" x2="14.44" y2="87.14"/>
  <text class="st15" transform="translate(122.6 10.98) rotate(.53)"><tspan x="0" y="0">CORE</tspan></text>
  <text class="st10" transform="translate(45.33 73.73) rotate(-45.47)"><tspan x="0" y="0">Applying, </tspan></text>
  <text class="st10" transform="translate(43.73 90.76) rotate(-45.47)"><tspan x="0" y="0">Maintaining, and</tspan></text>
  <text class="st10" transform="translate(60.2 89.41) rotate(-45.47)"><tspan x="0" y="0">Assessing</tspan></text>
  <text class="st10" transform="translate(63.16 101.8) rotate(-45.47)"><tspan class="st8" x="0" y="0">T</tspan><tspan class="st14" x="4.26" y="0">echnological</tspan></text>
  <text class="st10" transform="translate(71.39 108.84) rotate(-45.47)"><tspan x="0" y="0">Products and</tspan></text>
  <text class="st10" transform="translate(85.58 109.81) rotate(-45.47)"><tspan x="0" y="0">Systems</tspan></text>
  <text class="st10" transform="translate(119.55 30.22) rotate(1.02)"><tspan x="0" y="0">Nature and</tspan></text>
  <text class="st10" transform="translate(110.62 40.86) rotate(1.02)"><tspan x="0" y="0">Characteristics </tspan></text>
  <text class="st10" transform="translate(112.5 51.7) rotate(1.02)"><tspan x="0" y="0">of</tspan><tspan class="st20" x="8.02" y="0"> </tspan><tspan class="st8" x="10.24" y="0">T</tspan><tspan class="st14" x="14.5" y="0">echnology </tspan></text>
  <text class="st10" transform="translate(133.73 62.88) rotate(1.02)"><tspan x="0" y="0">and</tspan></text>
  <text class="st10" transform="translate(117.03 73.38) rotate(1.02)"><tspan x="0" y="0">Engineering</tspan></text>
  <text class="st10" transform="translate(196.75 44.09) rotate(45.77)"><tspan x="0" y="0">Core Concepts</tspan></text>
  <text class="st10" transform="translate(190.64 53.29) rotate(45.77)"><tspan x="0" y="0">of</tspan><tspan class="st18" x="8.02" y="0"> </tspan><tspan class="st0" x="10.24" y="0">T</tspan><tspan x="14.5" y="0">echnology</tspan></text>
  <text class="st10" transform="translate(196.1 74.39) rotate(45.77)"><tspan x="0" y="0">and </tspan></text>
  <text class="st10" transform="translate(177.72 70.98) rotate(45.77)"><tspan x="0" y="0">Engineering</tspan></text>
  <g>
    <text class="st9" transform="translate(250.2 165.39) rotate(90.55)"><tspan x="0" y="0">f</tspan></text>
    <text class="st9" transform="translate(250.24 160.38) rotate(90.55)"><tspan x="0" y="0">o</tspan></text>
    <text class="st9" transform="translate(250.27 157.88) rotate(90.55)"><tspan x="0" y="0"> </tspan></text>
    <text class="st9" transform="translate(250.32 152.88) rotate(90.55)"><tspan x="0" y="0">n</tspan></text>
    <text class="st9" transform="translate(250.36 147.87) rotate(90.55)"><tspan x="0" y="0">o</tspan></text>
    <text class="st9" transform="translate(250.38 145.88) rotate(90.55)"><tspan x="0" y="0">i</tspan></text>
    <text class="st9" transform="translate(250.41 143.37) rotate(90.55)"><tspan x="0" y="0">t</tspan></text>
    <text class="st9" transform="translate(250.45 138.37) rotate(90.55)"><tspan x="0" y="0">a</tspan></text>
    <text class="st9" transform="translate(250.48 135.37) rotate(90.55)"><tspan x="0" y="0">r</tspan></text>
    <text class="st9" transform="translate(250.53 130.37) rotate(90.55)"><tspan x="0" y="0">g</tspan></text>
    <text class="st9" transform="translate(250.58 125.37) rotate(90.55)"><tspan x="0" y="0">e</tspan></text>
    <text class="st9" transform="translate(250.6 122.86) rotate(90.55)"><tspan x="0" y="0">t</tspan></text>
    <text class="st9" transform="translate(250.65 117.86) rotate(90.55)"><tspan x="0" y="0">n</tspan></text>
    <text class="st9" transform="translate(250.67 115.36) rotate(90.55)"><tspan x="0" y="0">I</tspan></text>
  </g>
  <g>
    <text class="st10" transform="translate(239.42 162.53) rotate(90.55)"><tspan x="0" y="0">,</tspan></text>
    <text class="st10" transform="translate(239.47 157.53) rotate(90.55)"><tspan x="0" y="0">e</tspan></text>
    <text class="st10" transform="translate(239.52 152.52) rotate(90.55)"><tspan x="0" y="0">g</tspan></text>
    <text class="st10" transform="translate(239.56 147.52) rotate(90.55)"><tspan x="0" y="0">d</tspan></text>
    <text class="st10" transform="translate(239.61 142.51) rotate(90.55)"><tspan x="0" y="0">e</tspan></text>
    <text class="st10" transform="translate(239.63 140.52) rotate(90.55)"><tspan x="0" y="0">l</tspan></text>
    <text class="st10" transform="translate(239.7 134.02) rotate(90.55)"><tspan x="0" y="0">w</tspan></text>
    <text class="st10" transform="translate(239.74 129.02) rotate(90.55)"><tspan x="0" y="0">o</tspan></text>
    <text class="st10" transform="translate(239.79 124.01) rotate(90.55)"><tspan x="0" y="0">n</tspan></text>
    <text class="st10" transform="translate(239.85 118.01) rotate(90.55)"><tspan x="0" y="0">K</tspan></text>
  </g>
  <g>
    <text class="st10" transform="translate(228.59 166.42) rotate(90.55)"><tspan x="0" y="0">,</tspan></text>
    <text class="st10" transform="translate(228.63 161.92) rotate(90.55)"><tspan x="0" y="0">s</tspan></text>
    <text class="st10" transform="translate(228.67 156.92) rotate(90.55)"><tspan x="0" y="0">e</tspan></text>
    <text class="st10" transform="translate(228.69 154.92) rotate(90.55)"><tspan x="0" y="0">i</tspan></text>
    <text class="st10" transform="translate(228.74 149.92) rotate(90.55)"><tspan x="0" y="0">g</tspan></text>
    <text class="st10" transform="translate(228.79 144.91) rotate(90.55)"><tspan x="0" y="0">o</tspan></text>
    <text class="st10" transform="translate(228.81 142.91) rotate(90.55)"><tspan x="0" y="0">l</tspan></text>
    <text class="st10" transform="translate(228.86 137.91) rotate(90.55)"><tspan x="0" y="0">o</tspan></text>
    <text class="st10" transform="translate(228.9 132.91) rotate(90.55)"><tspan x="0" y="0">n</tspan></text>
    <text class="st10" transform="translate(228.95 127.9) rotate(90.55)"><tspan x="0" y="0">h</tspan></text>
    <text class="st10" transform="translate(229 123.4) rotate(90.55)"><tspan x="0" y="0">c</tspan></text>
    <text class="st10" transform="translate(229.04 118.4) rotate(90.55)"><tspan x="0" y="0">e</tspan></text>
    <text class="st10" transform="translate(229.09 113.9) rotate(90.55)"><tspan x="0" y="0">T</tspan></text>
  </g>
  <g>
    <text class="st10" transform="translate(218.21 123.77) rotate(90.55)"><tspan x="0" y="0">d Practices</tspan></text>
    <text class="st10" transform="translate(218.25 118.77) rotate(90.55)"><tspan x="0" y="0">n</tspan></text>
    <text class="st10" transform="translate(218.3 113.77) rotate(90.55)"><tspan x="0" y="0">a</tspan></text>
  </g>
  <g>
    <text class="st10" transform="translate(226.87 198.34) rotate(134.55)"><tspan x="0" y="0">Impacts of</tspan></text>
    <text class="st10" transform="translate(220.58 189.33) rotate(134.55)"><tspan class="st0" x="0" y="0">T</tspan><tspan x="4.26" y="0">echnology</tspan></text>
  </g>
  <g>
    <text class="st10" transform="translate(163.95 250.03) rotate(179.29)"><tspan x="0" y="0">Influence of</tspan></text>
    <text class="st10" transform="translate(161.56 239.25) rotate(179.29)"><tspan x="0" y="0">Society on</tspan></text>
    <text class="st10" transform="translate(167.68 228.38) rotate(179.29)"><tspan class="st0" x="0" y="0">T</tspan><tspan x="4.26" y="0">echnological</tspan></text>
    <text class="st10" transform="translate(166.79 217.59) rotate(179.29)"><tspan x="0" y="0">Development</tspan></text>
  </g>
  <g>
    <text class="st10" transform="translate(82.4 230.68) rotate(-132.57)"><tspan x="0" y="0">Influence of</tspan></text>
    <text class="st10" transform="translate(94.25 227.61) rotate(-132.57)"><tspan class="st19" x="0" y="0">T</tspan><tspan class="st14" x="4.26" y="0">echnology on</tspan></text>
    <text class="st10" transform="translate(92.38 209.61) rotate(-132.57)"><tspan x="0" y="0">Human</tspan></text>
    <text class="st10" transform="translate(102.71 204.88) rotate(-132.57)"><tspan x="0" y="0">Progress</tspan></text>
  </g>
  <g>
    <text class="st10" transform="translate(31.57 124.25) rotate(-88.34)"><tspan x="0" y="0">n</tspan></text>
    <text class="st10" transform="translate(31.52 126.25) rotate(-88.34)"><tspan x="0" y="0">i</tspan></text>
    <text class="st10" transform="translate(31.44 128.75) rotate(-88.34)"><tspan x="0" y="0"> </tspan></text>
    <text class="st10" transform="translate(31.3 133.75) rotate(-88.34)"><tspan x="0" y="0">n</tspan></text>
    <text class="st10" transform="translate(31.15 138.75) rotate(-88.34)"><tspan x="0" y="0">g</tspan></text>
    <text class="st10" transform="translate(31.09 140.75) rotate(-88.34)"><tspan x="0" y="0">i</tspan></text>
    <text class="st10" transform="translate(30.96 145.25) rotate(-88.34)"><tspan x="0" y="0">s</tspan></text>
    <text class="st10" transform="translate(30.82 150.25) rotate(-88.34)"><tspan x="0" y="0">e</tspan></text>
    <text class="st10" transform="translate(30.63 156.74) rotate(-88.34)"><tspan x="0" y="0">D</tspan></text>
    <text class="st10" transform="translate(42.74 111.81) rotate(-88.34)"><tspan x="0" y="0">d</tspan></text>
    <text class="st10" transform="translate(42.59 116.81) rotate(-88.34)"><tspan x="0" y="0">n</tspan></text>
    <text class="st10" transform="translate(42.45 121.81) rotate(-88.34)"><tspan x="0" y="0">a</tspan></text>
    <text class="st10" transform="translate(42.38 124.31) rotate(-88.34)"><tspan x="0" y="0"> </tspan></text>
    <text class="st10" transform="translate(42.25 128.81) rotate(-88.34)"><tspan x="0" y="0">y</tspan></text>
    <text class="st10" transform="translate(42.1 133.81) rotate(-88.34)"><tspan x="0" y="0">g</tspan></text>
    <text class="st10" transform="translate(41.95 138.81) rotate(-88.34)"><tspan x="0" y="0">o</tspan></text>
    <text class="st10" transform="translate(41.9 140.81) rotate(-88.34)"><tspan x="0" y="0">l</tspan></text>
    <text class="st10" transform="translate(41.75 145.81) rotate(-88.34)"><tspan x="0" y="0">o</tspan></text>
    <text class="st10" transform="translate(41.61 150.82) rotate(-88.34)"><tspan x="0" y="0">n</tspan></text>
    <text class="st10" transform="translate(41.46 155.82) rotate(-88.34)"><tspan x="0" y="0">h</tspan></text>
    <text class="st10" transform="translate(41.33 160.31) rotate(-88.34)"><tspan x="0" y="0">c</tspan></text>
    <text class="st10" transform="translate(41.18 165.32) rotate(-88.34)"><tspan x="0" y="0">e</tspan></text>
    <text class="st10" transform="translate(41.05 169.81) rotate(-88.34)"><tspan x="0" y="0">T</tspan></text>
    <text class="st10" transform="translate(53.32 119.62) rotate(-88.34)"><tspan x="0" y="0">g</tspan></text>
    <text class="st10" transform="translate(53.17 124.63) rotate(-88.34)"><tspan x="0" y="0">n</tspan></text>
    <text class="st10" transform="translate(53.11 126.62) rotate(-88.34)"><tspan x="0" y="0">i</tspan></text>
    <text class="st10" transform="translate(53.03 129.62) rotate(-88.34)"><tspan x="0" y="0">r</tspan></text>
    <text class="st10" transform="translate(52.88 134.62) rotate(-88.34)"><tspan x="0" y="0">e</tspan></text>
    <text class="st10" transform="translate(52.73 139.62) rotate(-88.34)"><tspan x="0" y="0">e</tspan></text>
    <text class="st10" transform="translate(52.59 144.63) rotate(-88.34)"><tspan x="0" y="0">n</tspan></text>
    <text class="st10" transform="translate(52.53 146.62) rotate(-88.34)"><tspan x="0" y="0">i</tspan></text>
    <text class="st10" transform="translate(52.39 151.62) rotate(-88.34)"><tspan x="0" y="0">g</tspan></text>
    <text class="st10" transform="translate(52.24 156.63) rotate(-88.34)"><tspan x="0" y="0">n</tspan></text>
    <text class="st10" transform="translate(52.07 162.63) rotate(-88.34)"><tspan x="0" y="0">E</tspan></text>
    <text class="st10" transform="translate(64 123.93) rotate(-88.34)"><tspan x="0" y="0">n</tspan></text>
    <text class="st10" transform="translate(63.85 128.93) rotate(-88.34)"><tspan x="0" y="0">o</tspan></text>
    <text class="st10" transform="translate(63.79 130.93) rotate(-88.34)"><tspan x="0" y="0">i</tspan></text>
    <text class="st10" transform="translate(63.72 133.43) rotate(-88.34)"><tspan x="0" y="0">t</tspan></text>
    <text class="st10" transform="translate(63.57 138.43) rotate(-88.34)"><tspan x="0" y="0">a</tspan></text>
    <text class="st10" transform="translate(63.44 142.93) rotate(-88.34)"><tspan x="0" y="0">c</tspan></text>
    <text class="st10" transform="translate(63.3 147.93) rotate(-88.34)"><tspan x="0" y="0">u</tspan></text>
    <text class="st10" transform="translate(63.15 152.94) rotate(-88.34)"><tspan x="0" y="0">d</tspan></text>
    <text class="st10" transform="translate(62.98 158.94) rotate(-88.34)"><tspan x="0" y="0">E</tspan></text>
  </g>
  <text class="st16" transform="translate(115.37 106.78) rotate(.53)"><tspan class="st7" x="0" y="0">S</tspan><tspan class="st4" x="4.59" y="0">tandards for</tspan><tspan class="st7" x="-9.64" y="9.6">T</tspan><tspan class="st3" x="-5.04" y="9.6">echnological and </tspan><tspan class="st7" x="-13.2" y="19.2">E</tspan><tspan class="st3" x="-8.16" y="19.2">ngineering </tspan><tspan class="st7" x="34.52" y="19.2">L</tspan><tspan class="st6" x="38.81" y="19.2">iteracy</tspan></text>
  <text class="st5" transform="translate(106.24 154.07) rotate(.53)"><tspan x="0" y="0">Defining the Role of </tspan><tspan x="7" y="8.4">Technology and </tspan><tspan x="9.32" y="16.8">Engineering in </tspan><tspan x="7.32" y="25.2">STEM Education</tspan></text>
  <g>
    <path class="st2" d="M124.67,134.86c-.47-1.37-1.72-1.93-3.98-1.95-3.03-.03-4.34.62-4.35,1.8-.01,1.56,1.56,1.68,4.36,1.71,3.85.04,6.54.37,6.51,3.52-.02,2.38-1.97,4.05-6.76,4-2.38-.02-3.55-.25-4.42-.65-1.52-.73-2.24-1.67-2.4-3.43l2.45.02c.18,1.47,1.97,2.17,4.55,2.19s4.22-.7,4.23-2.11c.01-1.33-1.76-1.56-3.8-1.58-.48,0-.91,0-1.36,0-2.15-.02-5.77-.13-5.73-3.67.02-2.26,1.81-3.69,6.73-3.65,4.14.04,5.76,1.29,6.22,3.73l-2.24.05Z"/>
    <polygon class="st2" points="140.92 133.76 135.67 133.71 135.58 143.71 133.34 143.69 133.43 133.69 128.2 133.64 128.22 131.55 140.94 131.67 140.92 133.76"/>
    <polygon class="st2" points="155.42 133.72 144.92 133.62 144.89 136.61 154.19 136.7 154.17 138.63 144.88 138.55 144.85 141.7 155.58 141.8 155.56 143.89 142.59 143.77 142.7 131.68 155.44 131.8 155.42 133.72"/>
    <polygon class="st2" points="159.63 141.69 169.24 141.78 169.22 144.02 157.37 143.91 157.49 131.82 159.73 131.84 159.63 141.69"/>
  </g>
  <text class="st12" transform="translate(89.74 277.39) rotate(.48)"><tspan x="0" y="0">© www.iteea.org (2020) </tspan></text>
  <circle class="st11" cx="139.39" cy="145.99" r=".62"/>
</svg>